PathFileType	4	(X/Y/Z)	..\data\2015032\dynamic\2015032_C5_01.trc
DataRate	CameraRate	NumFrames	NumMarkers	Units	OrigDataRate	OrigDataStartFrame	OrigNumFrames
100.000000	100.000000	4	48	mm	100.000000	61	165
Frame#	Time	L_IAS			L_IPS			R_IPS			R_IAS			L_FTC			L_FLE			L_FAX			L_TTC			L_FAL			L_FCC			L_FM1			L_FM2			L_FM5			R_FTC			R_FLE			R_FAX			R_TTC			R_FAL			R_FCC			R_FM1			R_FM2			R_FM5			CV7			TV10			SXS			SJN			L_SIA			L_SRS			L_SAA			L_SAE			L_HLE			L_HME			L_UOA			L_RSP			L_UHE			L_HM2			L_HM5			R_SIA			R_SRS			R_SAA			R_SAE			R_HLE			R_HME			R_UOA			R_RSP			R_UHE			R_HM2			R_HM5			
		X1	Y1	Z1	X2	Y2	Z2	X3	Y3	Z3	X4	Y4	Z4	X5	Y5	Z5	X6	Y6	Z6	X7	Y7	Z7	X8	Y8	Z8	X9	Y9	Z9	X10	Y10	Z10	X11	Y11	Z11	X12	Y12	Z12	X13	Y13	Z13	X14	Y14	Z14	X15	Y15	Z15	X16	Y16	Z16	X17	Y17	Z17	X18	Y18	Z18	X19	Y19	Z19	X20	Y20	Z20	X21	Y21	Z21	X22	Y22	Z22	X23	Y23	Z23	X24	Y24	Z24	X25	Y25	Z25	X26	Y26	Z26	X27	Y27	Z27	X28	Y28	Z28	X29	Y29	Z29	X30	Y30	Z30	X31	Y31	Z31	X32	Y32	Z32	X33	Y33	Z33	X34	Y34	Z34	X35	Y35	Z35	X36	Y36	Z36	X37	Y37	Z37	X38	Y38	Z38	X39	Y39	Z39	X40	Y40	Z40	X41	Y41	Z41	X42	Y42	Z42	X43	Y43	Z43	X44	Y44	Z44	X45	Y45	Z45	X46	Y46	Z46	X47	Y47	Z47	X48	Y48	Z48	

62	0.61	608.0079956054689	910.7222900390627	-384.7777404785157	456.0293579101564	918.6799316406252	-303.9543457031251	459.5182189941407	916.417907714844	-195.8278350830079	620.5020751953126	918.2944946289065	-146.1720275878907	526.5942993164064	837.7669067382815	-431.5233459472657	397.6520996093751	444.9880981445314	-371.1979675292969	361.3429565429688	394.9747924804689	-368.0315551757813	415.0272216796876	356.3818054199219	-325.7308349609376	171.0710906982422	125.3924789428711	-292.1787719726563	121.0925827026367	108.8465881347657	-239.9883728027344	291.0099792480469	23.17201805114746	-238.7237548828126	282.1480712890626	29.02443885803223	-296.4202880859376	233.4335479736329	27.73839378356934	-332.2607421875001	542.8264770507814	820.6027832031252	-88.28929901123048	721.9920654296876	443.4725341796876	-136.3728942871094	731.4357910156251	390.1360778808595	-138.3314056396485	786.9222412109377	399.797576904297	-194.6922149658204	785.552185058594	58.6363868713379	-198.1053314208985	766.5222167968751	15.96985912322998	-259.5121154785157	951.592468261719	70.71472930908205	-233.0565643310547	937.197448730469	71.17473602294923	-181.5861053466797	892.5870361328127	37.59758377075196	-147.3498992919922	460.802947998047	1403.453125	-235.5262451171876	404.8931884765626	1177.459228515625	-247.7781372070313	588.4162597656251	1150.960815429688	-245.7312622070313	559.8754272460939	1314.489379882813	-232.0583038330079	397.5687561035157	1216.41748046875	-369.4408264160157	424.0074462890626	1337.421264648438	-348.7562866210938	508.7495727539064	1353.855346679688	-425.6463012695314	554.3098754882814	1355.522338867188	-422.0826721191407	631.9789428710939	1061.655517578125	-484.0417785644532	588.0632934570314	1028.056762695313	-428.9856567382814	605.5550537109376	1009.564514160156	-470.3572998046876	812.600036621094	897.8688964843752	-402.7441406250001	785.9311523437502	881.9185180664065	-472.3142395019532	873.3518676757815	841.4696044921877	-393.3550415039064	817.7920532226565	812.2466430664065	-472.9289855957032	377.9928894042969	1204.135620117188	-139.6485137939453	408.5996093750001	1322.02734375	-145.1785583496094	462.5134582519532	1325.74755859375	-50.38214111328126	505.0689697265626	1325.30712890625	-31.97625923156739	415.7955017089845	1027.4365234375	-31.26395988464356	412.1802673339845	1027.666748046875	-104.4017868041992	385.5482177734376	1010.5888671875	-66.86941528320314	438.3546447753907	777.5783691406252	-42.3705062866211	378.0698547363282	797.0344238281252	-3.211667299270631	420.3356323242189	686.2750854492189	-36.40698242187501	338.3478393554688	734.7098999023439	-5.4007887840271	
63	0.62	623.3712768554689	910.284851074219	-383.7787170410157	471.6274719238282	919.127624511719	-303.6068420410157	474.9046325683595	917.692565917969	-195.4149932861329	636.0842895507814	919.5610351562502	-145.2791442871094	542.3414916992189	837.092956542969	-430.3800048828126	414.6662902832032	444.4437255859376	-371.4853210449219	377.2690429687501	395.6311035156251	-368.7781372070313	430.5969848632814	354.7603149414063	-327.9905090332032	178.347885131836	132.3831176757813	-293.9180297851563	128.9998626708985	118.7769012451172	-240.9622039794922	291.0443115234376	23.49504661560059	-238.7120056152344	282.4714355468751	29.20096397399903	-296.1749572753907	234.8461151123047	29.68939018249512	-332.1059570312501	558.3035888671876	822.1973266601565	-87.02855682373048	735.4993896484376	444.2426147460939	-136.0759887695313	744.2588500976564	390.8251342773439	-138.1199035644532	799.2324218750002	399.3929138183595	-195.2418518066407	788.5206298828127	58.09789276123048	-197.9468994140626	766.6065063476564	16.39560127258301	-259.3362731933594	954.5806884765627	64.10691070556642	-233.9020233154297	940.4588623046877	65.25593566894533	-181.9749298095703	894.305603027344	33.86921310424805	-147.4977264404297	473.9822692871095	1403.772216796875	-234.5176696777344	419.2677001953126	1177.3857421875	-247.1008300781251	602.9384155273439	1151.939208984375	-245.0624389648438	573.5166015625001	1315.276733398438	-231.2811584472657	411.493377685547	1216.29638671875	-368.5031433105469	437.236541748047	1337.625244140625	-347.7540588378907	521.6364135742189	1354.4638671875	-424.8265380859376	567.2721557617189	1356.329711914063	-421.5145568847657	643.3756713867189	1062.004272460938	-483.6788024902345	599.7816162109376	1028.496459960938	-428.2279663085939	617.0415649414064	1009.692565917969	-469.6593017578126	825.3126220703127	900.7056884765627	-400.8430786132814	798.7835083007815	883.5877075195315	-470.1575012207032	886.6812744140627	845.1251220703127	-390.7477416992189	831.3430175781252	814.1877441406252	-469.839569091797	392.2919921875001	1203.765747070313	-138.9268341064453	422.2356262207032	1321.876586914063	-144.3122863769532	475.882293701172	1325.954345703125	-49.60154342651369	518.5224609375001	1325.76123046875	-31.06809616088868	429.2306518554689	1028.015747070313	-30.73445129394532	425.8711547851564	1028.29541015625	-103.8498764038086	399.1018066406251	1011.189819335938	-66.43733978271486	451.8397521972657	778.1732177734377	-41.89106750488282	391.4373474121095	797.6547851562502	-2.886713027954102	433.4223632812501	686.7973632812501	-36.42509460449219	351.5564880371094	735.5042724609376	-5.452230453491212	
64	0.63	638.5296020507814	909.8689575195315	-382.6079101562501	487.0474853515626	919.6377563476565	-303.2463378906251	490.1167907714845	919.0781860351565	-194.9956970214844	651.4701538085939	921.0222167968752	-144.2994537353516	558.1009521484376	836.4157714843752	-429.107391357422	432.8723449707032	443.5365295410157	-372.0247497558594	394.4783630371095	395.9702148437501	-369.7979736328126	447.3406372070314	352.8654479980469	-330.5344848632813	186.9176940917969	139.7781372070313	-295.7287597656251	138.4419708251953	129.4164428710938	-241.9281311035157	291.4130859375001	24.3127670288086	-238.815902709961	283.1435241699219	29.75708770751954	-295.9904174804688	236.7307586669922	32.36279296875001	-332.0522766113282	573.4899291992189	823.9584960937502	-85.65303802490236	748.5065307617189	444.9534301757814	-135.4947509765625	756.5940551757814	391.4815673828126	-137.6465759277344	811.162048339844	399.0209045410157	-195.3530273437501	791.1577758789065	57.77328491210939	-197.686264038086	766.6551513671876	17.02857971191407	-259.1048583984376	957.1953125000002	57.79582977294923	-234.4371032714844	943.2940063476565	59.63381958007814	-182.0869903564453	895.6103515625002	30.48170280456544	-147.2476043701172	487.2361755371095	1404.223510742188	-233.5552978515626	433.6248168945314	1177.481323242188	-246.4480285644532	617.4202880859376	1152.983154296875	-244.3922882080079	587.1992187500001	1316.18017578125	-230.5323944091797	425.4558105468751	1216.365356445313	-367.6324462890626	450.5587158203126	1337.972778320313	-346.7816162109376	534.6170654296876	1355.213989257813	-424.0321044921876	580.3328857421876	1357.232666015625	-420.9600219726564	654.3810424804689	1062.33740234375	-483.3541259765626	611.0903320312501	1028.926513671875	-427.4654235839845	628.0554809570314	1009.840698242188	-469.0283508300782	837.4170532226565	903.3706054687502	-399.0072631835939	811.0273437500002	885.1013183593752	-468.0544433593751	899.3156738281252	848.5534667968752	-388.1749572753907	844.2011718750002	815.9414672851565	-466.7672119140626	406.6095275878907	1203.585205078125	-138.2149200439453	435.9163208007814	1321.89599609375	-143.4840240478516	489.3027648925782	1326.330200195313	-48.86315536499025	532.0312500000001	1326.375366210938	-30.20012283325196	442.932342529297	1028.675415039063	-30.15157699584962	439.7515869140626	1029.008666992188	-103.2527770996094	412.8969726562501	1011.827453613281	-65.93252563476564	466.0725402832032	778.8916015625002	-41.35686111450196	405.5027465820314	798.2578735351565	-2.524443626403809	447.568328857422	687.4335327148439	-36.27378082275391	365.6376647949219	736.1436767578126	-5.436742305755616	
65	0.64	653.3814086914064	909.481872558594	-381.2961425781251	502.1899719238282	920.1704101562502	-302.8229980468751	505.0955505371095	920.5220947265627	-194.5272979736329	666.6015625000001	922.6436157226565	-143.259994506836	573.7415771484376	835.7317504882815	-427.6914367675782	452.3138732910157	442.260711669922	-372.8063049316407	413.0385742187501	395.9563293457032	-371.0721130371094	465.3021850585939	350.7199401855469	-333.2563476562501	196.9105224609376	147.5607604980469	-297.5822753906251	149.5032501220703	140.6872863769532	-242.8873291015626	292.3840942382813	25.74690628051759	-239.1410675048829	284.4140625000001	30.81824684143067	-295.9568481445313	239.3192901611329	35.90328598022462	-332.1597290039063	588.3538208007814	825.8457031250002	-84.17677307128908	760.9184570312501	445.5464172363282	-134.655029296875	768.3442382812502	392.0438232421876	-136.9407501220703	822.6091308593752	398.6338195800782	-195.0592041015626	793.557556152344	57.64809036254884	-197.3730926513672	766.8150024414064	17.81163215637207	-258.8439331054688	959.5024414062502	51.9857864379883	-234.7760925292969	945.8015136718752	54.49007034301759	-182.0354461669922	896.6760253906252	27.54730224609376	-146.6865692138672	500.5608825683595	1404.795532226563	-232.6470031738282	447.9161987304689	1177.74755859375	-245.803939819336	631.8134155273439	1154.054809570313	-243.7394104003907	600.9047241210939	1317.170288085938	-229.8302001953126	439.4075012207032	1216.6337890625	-366.8297424316407	463.9490966796876	1338.4599609375	-345.8446655273438	547.6764526367189	1356.088012695313	-423.2696533203126	593.4677124023439	1358.206420898438	-420.4243774414064	665.0059814453126	1062.644897460938	-483.0494384765626	621.9869384765626	1029.361083984375	-426.6816711425782	638.6117553710939	1010.00244140625	-468.4346008300782	848.9509887695315	905.833679199219	-397.2692871093751	822.6721801757815	886.4353027343752	-466.0281066894532	911.2891845703127	851.7092895507815	-385.6873474121095	856.3606567382815	817.4772949218752	-463.7425537109376	420.9176330566407	1203.605834960938	-137.4999084472657	449.6375732421876	1322.08935546875	-142.6876831054688	502.8040161132814	1326.86181640625	-48.16812133789064	545.6210327148439	1327.130249023438	-29.38684654235841	456.9092712402345	1029.392211914063	-29.51430892944337	453.816864013672	1029.783325195313	-102.6117172241211	426.9403381347657	1012.477172851563	-65.34793853759767	481.0340576171876	779.7083129882815	-40.77601623535157	420.2592773437501	798.8257446289065	-2.116652250289917	462.7428588867189	688.1528320312501	-35.95561981201173	380.5744323730469	736.6142578125001	-5.331947803497315	
